<svg xmlns="http://www.w3.org/2000/svg" viewBox="0 0 80 80" width="80" height="80" role="img" aria-label="계란"><ellipse cx="40" cy="70" rx="25" ry="4" fill="#000" opacity=".07"/><path d="M16 44c-4-12 6-24 20-24 6 0 10 4 16 4 10 0 16 8 14 18-2 12-14 20-26 18-12-2-22-8-24-16z" fill="#FBF5E9"/><path d="M20 44c-2-8 6-16 16-16 4 0 8 3 13 3 8 0 12 6 11 13-2 9-12 15-21 13-9-1-17-6-19-13z" fill="#fff" opacity=".5"/><circle cx="40" cy="42" r="11" fill="#E3A73B"/><circle cx="36" cy="38" r="3.5" fill="#F5D68A" opacity=".8"/></svg>