<svg xmlns="http://www.w3.org/2000/svg" viewBox="0 0 80 80" width="80" height="80" role="img" aria-label="혀"><g transform="translate(40 40) scale(1.9) translate(-40 -57)"><circle cx="40" cy="42" r="23" fill="#F3D3B5"/><path d="M17 40c0-14 10-22 23-22s23 8 23 22c-3-8-10-12-23-12S20 32 17 40z" fill="#7A5A3A"/><ellipse cx="17" cy="44" rx="4" ry="6" fill="#CFC7B6"/><ellipse cx="63" cy="44" rx="4" ry="6" fill="#CFC7B6"/><circle cx="31" cy="42" r="3" fill="#CFC7B6"/><circle cx="49" cy="42" r="3" fill="#CFC7B6"/><path d="M40 44v6l-3 1" stroke="#CFC7B6" stroke-width="2.5" stroke-linecap="round" stroke-linejoin="round" fill="none"/><path d="M31 55c4 6 14 6 18 0z" fill="#B4553F"/><path d="M33 55h14v3H33z" fill="#FBF5E9"/><ellipse cx="40" cy="60" rx="5" ry="3" fill="#D4705C"/></g></svg>