<svg xmlns="http://www.w3.org/2000/svg" viewBox="0 0 80 80" width="80" height="80" role="img" aria-label="휴가"><ellipse cx="40" cy="70" rx="26" ry="4" fill="#000" opacity=".07"/><path d="M8 60h64" stroke="#F5D68A" stroke-width="6" stroke-linecap="round"/><path d="M52 56V26" stroke="#7A5A3A" stroke-width="3.4" stroke-linecap="round"/><path d="M52 24a20 12 0 0120 10H52zM52 24a20 12 0 00-20 10h20z" fill="#D4705C"/><path d="M52 24a20 12 0 0110 3l-10 7zM52 24a20 12 0 00-10 3l10 7z" fill="#FBF5E9"/><path d="M10 56l6-16h18l4 16z" fill="#8FBEE0"/><path d="M16 40h18l-2 8H14z" fill="#6FA6CC"/></svg>