<svg xmlns="http://www.w3.org/2000/svg" viewBox="0 0 80 80" width="80" height="80" role="img" aria-label="시장"><ellipse cx="40" cy="70" rx="26" ry="4" fill="#000" opacity=".07"/><path d="M8 20h64v8H8z" fill="#FBF5E9"/><path d="M8 28h11l3 10H8zM19 28h11l1 10H22zM30 28h11l-1 10h-9zM41 28h11l3 10h-9zM52 28h11l5 10h-9z" fill="#D4705C"/><path d="M19 28h11l1 10H22z" fill="#FBF5E9"/><path d="M41 28h11l3 10h-9z" fill="#FBF5E9"/><rect x="16" y="46" width="22" height="18" rx="2" fill="#C98A4B"/><rect x="42" y="46" width="22" height="18" rx="2" fill="#C98A4B"/><g fill="#6BBF8A"><circle cx="23" cy="46" r="5"/><circle cx="31" cy="46" r="5"/></g><g fill="#D4705C"><circle cx="49" cy="46" r="5"/><circle cx="57" cy="46" r="5"/></g></svg>