<svg xmlns="http://www.w3.org/2000/svg" viewBox="0 0 80 80" width="80" height="80" role="img" aria-label="신발"><ellipse cx="40" cy="70" rx="25" ry="4" fill="#000" opacity=".07"/><path d="M12 56c0-8 6-12 14-12 6 0 8-6 12-12 2-3 6-3 8 0 4 6 10 10 20 12 4 1 6 4 6 8v6H12z" fill="#D4705C"/><path d="M12 58h60v8H12z" fill="#FBF5E9"/><path d="M12 62h60v4H12z" fill="#CFC7B6"/><path d="M30 46l8 3M32 40l8 3M36 34l6 3" stroke="#FBF5E9" stroke-width="2.5" stroke-linecap="round"/><path d="M52 44c4 2 8 3 12 4" stroke="#B4553F" stroke-width="3" stroke-linecap="round" fill="none"/></svg>