<svg xmlns="http://www.w3.org/2000/svg" viewBox="0 0 80 80" width="80" height="80" role="img" aria-label="땀"><ellipse cx="40" cy="70" rx="20" ry="4" fill="#000" opacity=".07"/><path d="M16.0 76.0c0-14 10-22 24-22s24 8 24 22z" fill="#D4705C"/><rect x="35.0" y="46.0" width="10.0" height="10.0" fill="#E8C3A0"/><circle cx="40" cy="36" r="16.0" fill="#F3D3B5"/><circle cx="24.0" cy="38.0" r="3.5" fill="#F3D3B5"/><circle cx="56.0" cy="38.0" r="3.5" fill="#F3D3B5"/><path d="M24.0 34.0c0-12 8-19 16-19s16 7 16 19c-4-7-9-10-16-10s-12 3-16 10z" fill="#7A5A3A"/><circle cx="34.0" cy="37.0" r="2.2" fill="#433C31"/><circle cx="46.0" cy="37.0" r="2.2" fill="#433C31"/><ellipse cx="40" cy="45.0" rx="4.0" ry="3.5" fill="#B4553F"/><circle cx="30.0" cy="42.0" r="3.0" fill="#D4705C" opacity=".5"/><circle cx="50.0" cy="42.0" r="3.0" fill="#D4705C" opacity=".5"/><g fill="#8FBEE0"><path d="M62 18c-3 5-5 8-5 11a5 5 0 0010 0c0-3-2-6-5-11z"/><path d="M18 26c-2 4-4 6-4 9a4 4 0 008 0c0-3-2-5-4-9z"/><path d="M60 40c-2 4-3 6-3 8a3 3 0 006 0c0-2-1-4-3-8z"/></g><path d="M40 14v-6" stroke="#E3A73B" stroke-width="3" stroke-linecap="round"/></svg>